<svg width="150" height="31.000000000000004" xmlns="http://www.w3.org/2000/svg" fill="none">

 <g>
  <title>Layer 1</title>
  <g id="svg_11">
   <g id="svg_9">
    <path id="svg_1" fill="black" d="m26.01504,21.32l-2.68,0l-5.88,-18.63999c-0.08,-0.24 -0.05334,-0.4 0.08,-0.48001c0.13333,-0.10666 0.57333,-0.16 1.32,-0.16c0.74666,-0.02666 1.98666,-0.04 3.72,-0.04l1.16,5.24001c0.10666,0.48 0.21333,1.06666 0.32,1.75999c0.13333,0.66667 0.25333,1.3733 0.36,2.12c0.10666,0.7467 0.2,1.4533 0.28,2.12c0.08,0.6667 0.13333,1.2267 0.16,1.68c0.05333,-0.4533 0.12,-1.0133 0.2,-1.68c0.08,-0.6667 0.17333,-1.3733 0.28,-2.12c0.10666,-0.7467 0.21333,-1.46666 0.32,-2.15999c0.13333,-0.69334 0.25333,-1.28001 0.36,-1.76001l0.96,-4.39999c0.08,-0.26667 0.2,-0.45334 0.35999,-0.56c0.16,-0.10667 0.56,-0.17334 1.2,-0.20001c0.64,-0.02666 1.72,-0.04 3.24,-0.04l-5.75999,19.32zm-3.56,8.68l0,-14.6l4.48,0l0,13.8c0,0.2667 -0.06667,0.4533 -0.2,0.56c-0.10667,0.1067 -0.46667,0.1733 -1.08,0.2c-0.61334,0.0267 -1.68,0.04 -3.2,0.04z"/>
    <path id="svg_2" fill="black" d="m36.28813,30.4c-1.0666,0 -2,-0.1333 -2.8,-0.4c-0.8,-0.24 -1.4666,-0.72 -2,-1.44c-0.5066,-0.7467 -0.8933,-1.8 -1.16,-3.16c-0.24,-1.3867 -0.36,-3.2 -0.36,-5.44c0,-3.6267 0.5734,-6.2533 1.72,-7.88c1.1734,-1.6533 2.8134,-2.47999 4.92,-2.47999c1.44,0 2.6134,0.29333 3.52,0.87999c0.9334,0.56 1.6134,1.5867 2.04,3.08c0.4534,1.4667 0.68,3.5467 0.68,6.24c0,3.8667 -0.56,6.6 -1.68,8.2c-1.0933,1.6 -2.72,2.4 -4.88,2.4zm0.12,-3.72c0.2667,0 0.5067,-0.1333 0.72,-0.4c0.24,-0.2667 0.4267,-0.88 0.56,-1.84c0.16,-0.96 0.24,-2.4667 0.24,-4.52c0,-1.92 -0.04,-3.3467 -0.12,-4.28c-0.08,-0.96 -0.2266,-1.5867 -0.44,-1.88c-0.2133,-0.2933 -0.52,-0.44 -0.92,-0.44c-0.2933,0 -0.56,0.16 -0.8,0.48c-0.24,0.2933 -0.4266,0.92 -0.56,1.88c-0.1333,0.9333 -0.2,2.3467 -0.2,4.24c0,1.5467 0.0267,2.7867 0.08,3.72c0.08,0.9067 0.1734,1.5733 0.28,2c0.1334,0.4267 0.2934,0.7067 0.48,0.84c0.2134,0.1333 0.44,0.2 0.68,0.2z"/>
    <path id="svg_3" fill="black" d="m50.86033,30.4c-1.6,0 -2.84,-0.24 -3.72,-0.72c-0.8533,-0.48 -1.4533,-1.16 -1.8,-2.04c-0.3466,-0.9067 -0.52,-1.9867 -0.52,-3.24l0,-13.6c0,-0.2667 0.0534,-0.4533 0.16,-0.56c0.1334,-0.1067 0.52,-0.1733 1.16,-0.2c0.6667,-0.0267 1.7734,-0.04 3.32,-0.04l0,14.68c0,0.4 0.0267,0.7467 0.08,1.04c0.08,0.2667 0.2134,0.48 0.4,0.64c0.1867,0.1333 0.4667,0.2 0.84,0.2c0.2667,0 0.5334,-0.04 0.8,-0.12c0.2667,-0.08 0.5067,-0.2133 0.72,-0.4l0,-15.24c0,-0.2667 0.0534,-0.4533 0.16,-0.56c0.1334,-0.1067 0.5067,-0.1733 1.12,-0.2c0.6134,-0.0267 1.68,-0.04 3.2,-0.04l0,18.88c-0.64,0.3733 -1.4933,0.72 -2.56,1.04c-1.04,0.32 -2.16,0.48 -3.36,0.48z"/>
    <path id="svg_4" fill="black" d="m59.31633,30l0,-18.6c0.6933,-0.48 1.5066,-0.8933 2.44,-1.24c0.96,-0.37333 2,-0.55999 3.12,-0.55999c1.0933,0 1.8133,0.15999 2.16,0.47999c0.3466,0.32 0.52,0.8267 0.52,1.52c0,0.2667 -0.0267,0.64 -0.08,1.12c-0.0534,0.48 -0.1734,0.9733 -0.36,1.48c-0.2667,-0.1333 -0.5334,-0.2133 -0.8,-0.24c-0.24,-0.0533 -0.4667,-0.08 -0.68,-0.08c-0.24,0 -0.52,0.0533 -0.84,0.16c-0.32,0.1067 -0.6134,0.2667 -0.88,0.48l-0.04,14.68c0,0.2667 -0.0667,0.4533 -0.2,0.56c-0.1067,0.1067 -0.48,0.1733 -1.12,0.2c-0.64,0.0267 -1.72,0.04 -3.24,0.04z"/>
    <path id="svg_5" fill="black" d="m69.15723,30l0,-27.19999c0,-0.26667 0.08,-0.46667 0.24,-0.60001c0.16,-0.13333 0.4533,-0.2 0.88,-0.2l3.92,0c0.8533,0 1.68,0.09334 2.48,0.28001c0.8,0.16 1.52,0.46666 2.16,0.92c0.64,0.45333 1.1467,1.09333 1.52,1.92c0.4,0.8 0.6,1.85333 0.6,3.16c0,1.36 -0.1867,2.50669 -0.56,3.43999c-0.3733,0.9067 -0.84,1.6133 -1.4,2.12c-0.56,0.48 -1.1333,0.76 -1.72,0.84c0.48,0.0533 0.9867,0.1733 1.52,0.36c0.5333,0.16 1.0267,0.4533 1.48,0.88c0.48,0.4 0.8667,0.9733 1.16,1.72c0.2933,0.72 0.44,1.6667 0.44,2.84c0,1.0667 -0.0933,2.08 -0.28,3.04c-0.16,0.9333 -0.4267,1.8 -0.8,2.6c-0.3733,0.7733 -0.8533,1.4533 -1.44,2.04c-0.5867,0.5867 -1.2933,1.04 -2.12,1.36c-0.8,0.32 -1.7467,0.48 -2.84,0.48l-5.24,0zm4.56,-3.88l0.8,0c0.32,0 0.6,-0.12 0.84,-0.36c0.24,-0.24 0.44,-0.5867 0.6,-1.04c0.1867,-0.4533 0.32,-1 0.4,-1.64c0.1067,-0.64 0.16,-1.3733 0.16,-2.2c0,-0.9067 -0.04,-1.6267 -0.12,-2.16c-0.08,-0.5333 -0.2,-0.9333 -0.36,-1.2c-0.16,-0.2933 -0.36,-0.48 -0.6,-0.56c-0.24,-0.1067 -0.52,-0.16 -0.84,-0.16l-0.88,0l0,9.32zm0,-13.08l0.76,0c0.32,0 0.5867,-0.16 0.8,-0.48c0.24,-0.32 0.4133,-0.76 0.52,-1.32c0.1333,-0.5867 0.2,-1.25333 0.2,-2c0,-0.93333 -0.0667,-1.63999 -0.2,-2.11999c-0.1067,-0.48 -0.2667,-0.8 -0.48,-0.96c-0.2133,-0.16001 -0.44,-0.24001 -0.68,-0.24001l-0.92,0l0,7.12z"/>
    <path id="svg_6" fill="black" d="m83.61313,30l0,-18.04c0,-0.6667 0.12,-1.1333 0.36,-1.4c0.2667,-0.2667 0.72,-0.4267 1.36,-0.48c0.6667,-0.0533 1.6134,-0.08 2.84,-0.08l0,19.2c0,0.2667 -0.0666,0.4533 -0.2,0.56c-0.1066,0.1067 -0.48,0.1733 -1.12,0.2c-0.64,0.0267 -1.72,0.04 -3.24,0.04zm2.16,-21.79999c-0.6666,0 -1.2,-0.22667 -1.6,-0.68c-0.3733,-0.45334 -0.56,-1.30667 -0.56,-2.56001c0,-0.93333 0.2,-1.67999 0.6,-2.23999c0.4,-0.58667 1.0134,-0.88001 1.84,-0.88001c0.8267,0 1.3867,0.21334 1.68,0.64001c0.2934,0.42666 0.44,1.18666 0.44,2.27999c0,1.06667 -0.2133,1.90667 -0.64,2.52001c-0.4,0.61333 -0.9866,0.92 -1.76,0.92z"/>
    <path id="svg_7" fill="black" d="m90.80063,30l0,-27.44c0,-0.66666 0.12,-1.13333 0.36,-1.39999c0.24,-0.26667 0.68,-0.42667 1.32,-0.48001c0.6667,-0.05333 1.6134,-0.07999 2.84,-0.07999l0,10.11999c0.5334,-0.2933 1.16,-0.5467 1.88,-0.76c0.7467,-0.24 1.5334,-0.35999 2.36,-0.35999c0.9067,0 1.6,0.17333 2.08,0.51999c0.48,0.3467 0.8,0.7867 0.96,1.32c0.1867,0.5067 0.28,1.0267 0.28,1.56c0,0.7467 -0.08,1.44 -0.24,2.08c-0.1333,0.64 -0.32,1.2133 -0.56,1.72c-0.24,0.5067 -0.4933,0.9467 -0.76,1.32c-0.2666,0.3733 -0.52,0.68 -0.76,0.92c0.6934,0.5067 1.24,1.1467 1.64,1.92c0.4267,0.7733 0.7334,1.64 0.92,2.6c0.2134,0.96 0.32,1.9733 0.32,3.04c0,0.4267 -0.0133,0.88 -0.04,1.36c0,0.4533 -0.0266,0.9067 -0.08,1.36c-0.0266,0.2133 -0.12,0.3733 -0.28,0.48c-0.16,0.1067 -0.5866,0.1733 -1.28,0.2c-0.6933,0 -1.88,0 -3.56,0c0.0534,-0.6933 0.0934,-1.3733 0.12,-2.04c0.0534,-0.6933 0.08,-1.36 0.08,-2c0,-0.7733 -0.04,-1.4667 -0.12,-2.08c-0.0533,-0.6133 -0.16,-1.1333 -0.32,-1.56c-0.1333,-0.4533 -0.3333,-0.7733 -0.6,-0.96c-0.24,-0.2133 -0.56,-0.28 -0.96,-0.2c-0.2133,0.0267 -0.4,0.0933 -0.56,0.2c-0.16,0.08 -0.2933,0.16 -0.4,0.24c-0.08,0.08 -0.12,0.12 -0.12,0.12l0,7.48c0,0.2667 -0.0666,0.4533 -0.2,0.56c-0.1066,0.1067 -0.48,0.1733 -1.12,0.2c-0.6133,0.0267 -1.68,0.04 -3.2,0.04zm4.52,-11.28c0.56,-0.32 1.0267,-0.6667 1.4,-1.04c0.3734,-0.3733 0.6534,-0.8 0.84,-1.28c0.1867,-0.5067 0.28,-1.08 0.28,-1.72c0,-0.72 -0.2666,-1.08 -0.8,-1.08c-0.3466,0 -0.6666,0.1067 -0.96,0.32c-0.2666,0.1867 -0.52,0.4533 -0.76,0.8l0,4z"/>
    <path id="svg_8" fill="black" d="m111.54313,30.4c-0.9066,0 -1.7466,-0.1333 -2.52,-0.4c-0.7466,-0.2933 -1.4,-0.7867 -1.96,-1.48c-0.5333,-0.6933 -0.96,-1.6533 -1.28,-2.88c-0.2933,-1.2267 -0.44,-2.7867 -0.44,-4.68c0,-2.4267 0.1867,-4.3867 0.56,-5.88c0.3734,-1.4933 0.88,-2.6267 1.52,-3.4c0.6667,-0.8 1.4267,-1.3467 2.28,-1.64c0.8534,-0.29333 1.7467,-0.43999 2.68,-0.43999c1.6,0 2.8534,0.50669 3.76,1.51999c0.9067,1.0133 1.36,2.68 1.36,5c0,0.96 -0.04,1.96 -0.12,3c-0.08,1.0133 -0.2266,1.9067 -0.44,2.68c-0.7733,0.16 -1.6666,0.28 -2.68,0.36c-1.0133,0.08 -2,0.1467 -2.96,0.2c-0.96,0.0267 -1.76,0.04 -2.4,0.04c-0.6133,0 -0.92,0 -0.92,0l0.08,-3.56c0,0 0.1867,0.0133 0.56,0.04c0.4,0 0.88,0 1.44,0c0.56,0 1.1067,-0.0267 1.64,-0.08c0.5334,-0.0533 0.9467,-0.1467 1.24,-0.28c0.08,-0.24 0.1334,-0.56 0.16,-0.96c0.0267,-0.4267 0.04,-0.8 0.04,-1.12c0,-1.28 -0.1066,-2.0933 -0.32,-2.44c-0.1866,-0.3467 -0.5333,-0.52 -1.04,-0.52c-0.3466,0 -0.64,0.1467 -0.88,0.44c-0.24,0.2933 -0.4266,0.7467 -0.56,1.36c-0.1333,0.5867 -0.2266,1.3333 -0.28,2.24c-0.0533,0.88 -0.08,1.9333 -0.08,3.16c0,0.9333 0.0267,1.7467 0.08,2.44c0.08,0.6667 0.2,1.2133 0.36,1.64c0.1867,0.4267 0.4534,0.7467 0.8,0.96c0.3734,0.2133 0.84,0.32 1.4,0.32c0.72,0 1.4267,-0.0933 2.12,-0.28c0.72,-0.2133 1.4267,-0.4933 2.12,-0.84c0.1334,0.4 0.2267,0.8933 0.28,1.48c0.0534,0.56 0.08,1.0667 0.08,1.52c0,0.5333 -0.2666,0.9867 -0.8,1.36c-0.5066,0.3733 -1.1866,0.6533 -2.04,0.84c-0.8533,0.1867 -1.8,0.28 -2.84,0.28z"/>
   </g>
   <g>
    <!--! Font Awesome Pro 6.2.0 by @fontawesome - https://fontawesome.com License - https://fontawesome.com/license (Commercial License) Copyright 2022 Fonticons, Inc. -->
    <g>
     <title>Layer 1</title>
     <path fill="black"   d="m126.30868,11.20312c0.69355,0 1.25625,-0.57739 1.25625,-1.28906s-0.5627,-1.28906 -1.25625,-1.28906s-1.25625,0.57739 -1.25625,1.28906s0.5627,1.28906 1.25625,1.28906zm0.71188,1.71875l-1.61742,-1.31055c-0.45277,-0.36523 -1.09137,-0.37061 -1.54676,-0.00806l-2.17488,1.72412c-0.80348,0.63916 -0.7459,1.90137 0.11254,2.45996l1.5834,1.03125l0,2.97827c0,0.47534 0.37426,0.85938 0.8375,0.85938s0.8375,-0.38403 0.8375,-0.85938l0,-3.4375c0,-0.28735 -0.13871,-0.55591 -0.37164,-0.71436l-1.12016,-0.76538l1.57816,-1.30249l1.0652,0.87549c0.14918,0.12085 0.33238,0.18799 0.52344,0.18799l1.675,0c0.46324,0 0.8375,-0.38403 0.8375,-0.85938s-0.37426,-0.85938 -0.8375,-0.85938l-1.38188,0l0,0.00002zm-5.94625,6.01563c0,1.06885 -0.84273,1.93359 -1.88438,1.93359s-1.88438,-0.86475 -1.88438,-1.93359s0.84273,-1.93359 1.88438,-1.93359s1.88438,0.86475 1.88438,1.93359zm1.46563,0c0,-1.89868 -1.49965,-3.4375 -3.35,-3.4375s-3.35,1.53882 -3.35,3.4375s1.49965,3.4375 3.35,3.4375s3.35,-1.53882 3.35,-3.4375zm8.58438,0c0,1.06885 -0.84273,1.93359 -1.88438,1.93359s-1.88438,-0.86475 -1.88438,-1.93359s0.84273,-1.93359 1.88438,-1.93359s1.88438,0.86475 1.88438,1.93359zm1.46563,0c0,-1.89868 -1.49965,-3.4375 -3.35,-3.4375s-3.35,1.53882 -3.35,3.4375s1.49965,3.4375 3.35,3.4375s3.35,-1.53882 3.35,-3.4375z" id="svg_10" stroke="null"/>
    </g>
   </g>
  </g>
 </g>
</svg>