<svg width="80" height="20" xmlns="http://www.w3.org/2000/svg" fill="#f2f2aa">
 <!--! Font Awesome Pro 6.2.0 by @fontawesome - https://fontawesome.com License - https://fontawesome.com/license (Commercial License) Copyright 2022 Fonticons, Inc. -->

 <g>
  <title>Layer 1</title>
  <path stroke="null" fill="#fff" d="m12.79046,7.16148c0.57623,0 1.04375,-0.38143 1.04375,-0.85155s-0.46751,-0.85155 -1.04375,-0.85155s-1.04375,0.38143 -1.04375,0.85155s0.46751,0.85155 1.04375,0.85155zm0.59146,1.13541l-1.34383,-0.86575c-0.37619,-0.24127 -0.90676,-0.24482 -1.28512,-0.00532l-1.80699,1.13895c-0.66756,0.42223 -0.61972,1.25604 0.0935,1.62505l1.31556,0.68124l0,1.96745c0,0.31401 0.31095,0.56771 0.69583,0.56771s0.69583,-0.25369 0.69583,-0.56771l0,-2.27081c0,-0.18983 -0.11525,-0.36723 -0.30878,-0.47191l-0.93068,-0.50561l1.31121,-0.86043l0.88501,0.57835c0.12395,0.07984 0.27616,0.12418 0.43489,0.12418l1.39166,0c0.38488,0 0.69583,-0.25369 0.69583,-0.56771s-0.31095,-0.56771 -0.69583,-0.56771l-1.14813,0l0.00001,0.00001zm-4.94041,3.97393c0,0.70608 -0.70018,1.27733 -1.56563,1.27733s-1.56563,-0.57125 -1.56563,-1.27733s0.70018,-1.27733 1.56563,-1.27733s1.56563,0.57125 1.56563,1.27733zm1.21771,0c0,-1.25427 -1.24597,-2.27081 -2.78333,-2.27081s-2.78333,1.01654 -2.78333,2.27081s1.24597,2.27081 2.78333,2.27081s2.78333,-1.01654 2.78333,-2.27081zm7.13228,0c0,0.70608 -0.70018,1.27733 -1.56563,1.27733s-1.56563,-0.57125 -1.56563,-1.27733s0.70018,-1.27733 1.56563,-1.27733s1.56563,0.57125 1.56563,1.27733zm1.21771,0c0,-1.25427 -1.24597,-2.27081 -2.78333,-2.27081s-2.78333,1.01654 -2.78333,2.27081s1.24597,2.27081 2.78333,2.27081s2.78333,-1.01654 2.78333,-2.27081z" id="svg_1"/>
  <text stroke="null" fill="#fff" xml:space="preserve" text-anchor="start" font-family="'Yanone Kaffeesatz'" font-size="14" id="svg_2" y="14.75005" x="19.32399">Bikeland</text>
 </g>
</svg>